<svg xmlns="http://www.w3.org/2000/svg" xmlns:xlink="http://www.w3.org/1999/xlink" width="500" zoomAndPan="magnify" viewBox="0 0 375 374.999991" height="500" preserveAspectRatio="xMidYMid meet" version="1.0"><defs><g/><clipPath id="203232b730"><path d="M 4 16 L 375 16 L 375 318 L 4 318 Z M 4 16 " clip-rule="nonzero"/></clipPath><clipPath id="a804ce30c5"><rect x="0" width="375" y="0" height="371"/></clipPath><clipPath id="c7c17a133a"><path d="M 0.878906 5 L 48 5 L 48 240.601562 L 0.878906 240.601562 Z M 0.878906 5 " clip-rule="nonzero"/></clipPath><clipPath id="17e4ba73ec"><rect x="0" width="48" y="0" height="236"/></clipPath><clipPath id="45685b2768"><path d="M 27 0.121094 L 153.761719 0.121094 L 153.761719 236 L 27 236 Z M 27 0.121094 " clip-rule="nonzero"/></clipPath><clipPath id="94a820e219"><rect x="0" width="127" y="0" height="236"/></clipPath><clipPath id="7ce42b29b1"><rect x="0" width="154" y="0" height="241"/></clipPath></defs><rect x="-37.5" width="450" fill="#ffffff" y="-37.499999" height="449.999989" fill-opacity="1"/><rect x="-37.5" width="450" fill="#593d91" y="-37.499999" height="449.999989" fill-opacity="1"/><g transform="matrix(1, 0, 0, 1, 0, 0)"><g clip-path="url(#a804ce30c5)"><g clip-path="url(#203232b730)"><g fill="#ffffff" fill-opacity="1"><g transform="translate(-12.226544, 235.63352)"><g><path d="M 395.046875 40.078125 C 380.796875 53.441406 365.503906 63.6875 349.171875 70.8125 C 332.835938 77.9375 314.875 81.5 295.28125 81.5 C 283.101562 81.5 271.742188 79.492188 261.203125 75.484375 C 250.671875 71.484375 240.578125 66.507812 230.921875 60.5625 C 221.273438 54.625 212 48.164062 203.09375 41.1875 C 194.1875 34.21875 185.128906 27.765625 175.921875 21.828125 C 166.710938 15.890625 157.285156 10.914062 147.640625 6.90625 C 137.992188 2.894531 127.675781 0.890625 116.6875 0.890625 C 104.21875 0.890625 92.191406 3.039062 80.609375 7.34375 C 69.035156 11.65625 58.492188 17.671875 48.984375 25.390625 L 46.765625 21.375 C 56.265625 15.4375 65.539062 10.390625 74.59375 6.234375 C 83.65625 2.078125 93.828125 -0.445312 105.109375 -1.34375 C 92.335938 -4.007812 80.53125 -8.679688 69.6875 -15.359375 C 58.851562 -22.046875 49.578125 -30.140625 41.859375 -39.640625 C 34.140625 -49.140625 28.050781 -59.828125 23.59375 -71.703125 C 19.144531 -83.578125 16.921875 -96.046875 16.921875 -109.109375 C 16.921875 -124.253906 19.816406 -138.507812 25.609375 -151.875 C 31.398438 -165.238281 39.269531 -176.890625 49.21875 -186.828125 C 59.164062 -196.773438 70.816406 -204.644531 84.171875 -210.4375 C 97.535156 -216.226562 111.789062 -219.125 126.9375 -219.125 C 142.070312 -219.125 156.320312 -216.226562 169.6875 -210.4375 C 183.050781 -204.644531 194.703125 -196.773438 204.640625 -186.828125 C 214.585938 -176.890625 222.457031 -165.238281 228.25 -151.875 C 234.039062 -138.507812 236.9375 -124.253906 236.9375 -109.109375 C 236.9375 -95.453125 234.5625 -82.390625 229.8125 -69.921875 C 225.0625 -57.453125 218.53125 -46.316406 210.21875 -36.515625 C 201.90625 -26.722656 191.957031 -18.632812 180.375 -12.25 C 168.789062 -5.863281 156.171875 -1.78125 142.515625 0 C 158.253906 1.78125 173.691406 6.082031 188.828125 12.90625 C 203.972656 19.738281 218.96875 26.863281 233.8125 34.28125 C 248.664062 41.707031 263.660156 48.390625 278.796875 54.328125 C 293.941406 60.273438 309.53125 63.25 325.5625 63.25 C 338.632812 63.25 350.660156 61.164062 361.640625 57 C 372.628906 52.84375 382.875 46.164062 392.375 36.96875 Z M 65.921875 -128.71875 C 65.921875 -122.1875 66.515625 -114.539062 67.703125 -105.78125 C 68.890625 -97.019531 70.671875 -87.960938 73.046875 -78.609375 C 75.421875 -69.253906 78.460938 -60.046875 82.171875 -50.984375 C 85.878906 -41.929688 90.40625 -33.84375 95.75 -26.71875 C 101.09375 -19.59375 107.179688 -13.800781 114.015625 -9.34375 C 120.847656 -4.894531 128.421875 -2.671875 136.734375 -2.671875 C 147.117188 -2.671875 155.800781 -5.640625 162.78125 -11.578125 C 169.757812 -17.515625 175.328125 -24.863281 179.484375 -33.625 C 183.640625 -42.382812 186.535156 -51.738281 188.171875 -61.6875 C 189.804688 -71.632812 190.625 -80.765625 190.625 -89.078125 C 190.625 -99.460938 189.285156 -111.851562 186.609375 -126.25 C 183.941406 -140.65625 179.632812 -154.460938 173.6875 -167.671875 C 167.75 -180.890625 160.101562 -192.175781 150.75 -201.53125 C 141.40625 -210.882812 130.203125 -215.5625 117.140625 -215.5625 C 107.035156 -215.5625 98.644531 -212.515625 91.96875 -206.421875 C 85.289062 -200.335938 80.019531 -192.84375 76.15625 -183.9375 C 72.300781 -175.03125 69.628906 -165.53125 68.140625 -155.4375 C 66.660156 -145.34375 65.921875 -136.4375 65.921875 -128.71875 Z M 65.921875 -128.71875 "/></g></g></g></g></g></g><g transform="matrix(1, 0, 0, 1, 194, 111)"><g clip-path="url(#7ce42b29b1)"><g clip-path="url(#c7c17a133a)"><g transform="matrix(1, 0, 0, 1, 0, 5)"><g clip-path="url(#17e4ba73ec)"><g fill="#ffffff" fill-opacity="1"><g transform="translate(1.727658, 165.039405)"><g><path d="M 41.5 -33.0625 L 31.65625 -23.921875 L 8.4375 -56.75 L 31.65625 -87.9375 L 41.5 -79.734375 L 24.859375 -56.75 Z M 41.5 -33.0625 "/></g></g></g></g></g></g><g clip-path="url(#45685b2768)"><g transform="matrix(1, 0, 0, 1, 27, 0)"><g clip-path="url(#94a820e219)"><g fill="#ffffff" fill-opacity="1"><g transform="translate(1.293576, 164.57274)"><g><path d="M 65.890625 -114.90625 L 25.328125 0 L 11.25 0 L 51.828125 -114.90625 Z M 65.890625 -114.90625 "/></g></g></g><g fill="#ffffff" fill-opacity="1"><g transform="translate(75.161744, 164.57274)"><g><path d="M 44.09375 -56.515625 L 21.109375 -25.5625 L 11.25 -33.765625 L 27.90625 -56.515625 L 11.25 -80.4375 L 21.109375 -89.578125 Z M 44.09375 -56.515625 "/></g></g></g></g></g></g></g></g></svg>